# Blender v2.91.0 OBJ File: ''
# www.blender.org
o Cube_Cube.002
v 6.372700 5.515721 0.000001
v 5.524479 6.343660 1.161201
v 6.129176 5.099019 1.161201
v 3.128023 -3.880864 -0.000001
v 1.990325 -4.147901 0.859657
v 1.802947 -4.754288 -0.000001
v 0.000000 5.538270 0.000001
v 1.684976 6.377549 1.161201
v 1.441660 7.006410 0.000001
v 1.299590 3.973131 2.370882
v 0.000000 2.796799 2.543106
v 1.082006 2.391985 2.566906
v 0.000000 -5.418275 -0.000001
v 1.693286 -2.984986 1.902688
v 0.000000 -2.995942 2.115576
v 2.682069 -1.277201 2.370881
v 0.000000 -2.102744 2.385021
v 2.129817 -0.017395 2.676956
v 1.411438 -0.939966 2.676956
v 3.482744 1.987630 2.370882
v 3.302510 0.395130 2.370882
v 2.871820 3.345326 2.370882
v 1.800803 1.829284 2.676957
v 4.289762 -2.813334 -0.000001
v 3.204846 -3.342056 0.909478
v 5.412786 -1.506394 -0.000000
v 4.251888 -2.514237 1.035340
v 6.052517 0.009000 -0.000000
v 5.264034 -1.224401 1.161200
v 6.390236 1.838729 1.161200
v 5.840606 0.141379 1.161200
v 6.983406 3.995174 0.000001
v 6.679587 3.734722 1.161201
v 4.785446 3.832188 1.952943
v 3.718460 5.451898 1.952944
v 5.123121 2.266949 1.952943
v 4.670532 0.240469 1.952943
v 4.133690 -1.231677 1.952943
v 2.815801 -2.846253 1.534912
v 5.701762 6.912447 0.000001
v 3.349223 6.953680 1.161201
v 3.288214 7.646614 0.000001
v 6.662358 1.892155 0.000000
v 1.307177 0.676304 2.740267
v 0.639169 0.211531 2.740267
v 0.364570 -0.628409 2.668283
v 0.937679 1.559755 2.658202
v 0.723552 0.515957 2.740267
v 0.000000 4.116778 2.040304
v 0.000000 5.084513 1.161201
v 0.000000 -1.070745 2.613992
v 0.000000 1.018388 2.676956
v 0.000000 0.468216 2.676956
v 0.000000 -0.134751 2.676956
v -6.372700 5.515721 0.000001
v -6.129176 5.099019 1.161201
v -5.524479 6.343660 1.161201
v -3.128023 -3.880864 -0.000001
v -1.802947 -4.754288 -0.000001
v -1.990325 -4.147901 0.859657
v -1.441660 7.006410 0.000001
v -1.684976 6.377549 1.161201
v -1.299590 3.973131 2.370882
v -1.082006 2.391985 2.566906
v -1.693286 -2.984986 1.902688
v -2.682069 -1.277201 2.370881
v -1.411438 -0.939966 2.676956
v -2.129817 -0.017395 2.676956
v -3.482744 1.987630 2.370882
v -3.302510 0.395130 2.370882
v -2.871820 3.345326 2.370882
v -1.800803 1.829284 2.676957
v -4.289762 -2.813334 -0.000001
v -3.204846 -3.342056 0.909478
v -5.412786 -1.506394 -0.000000
v -4.251888 -2.514237 1.035340
v -6.052517 0.009000 -0.000000
v -5.264034 -1.224401 1.161200
v -5.840606 0.141379 1.161200
v -6.390236 1.838729 1.161200
v -6.983406 3.995174 0.000001
v -6.679587 3.734722 1.161201
v -4.785446 3.832188 1.952943
v -3.718460 5.451898 1.952944
v -4.670532 0.240469 1.952943
v -5.123121 2.266949 1.952943
v -4.133690 -1.231677 1.952943
v -2.815801 -2.846253 1.534912
v -5.701762 6.912447 0.000001
v -3.349223 6.953680 1.161201
v -3.288214 7.646614 0.000001
v -6.662358 1.892155 0.000000
v -1.307177 0.676304 2.740267
v -0.364570 -0.628409 2.668283
v -0.639169 0.211531 2.740267
v -0.723552 0.515957 2.740267
v -0.937679 1.559755 2.658202
v 6.129176 5.099019 -1.161199
v 5.524479 6.343660 -1.161199
v 1.990325 -4.147901 -0.859659
v 1.684976 6.377549 -1.161199
v 1.299590 3.973132 -2.370881
v 1.082006 2.391986 -2.566905
v 0.000000 2.796800 -2.543105
v 0.000000 -2.995941 -2.115577
v 1.693286 -2.984985 -1.902689
v 2.682069 -1.277200 -2.370882
v 0.000000 -2.102743 -2.385022
v 1.411438 -0.939965 -2.676957
v 2.129817 -0.017394 -2.676957
v 3.482744 1.987630 -2.370881
v 3.302510 0.395131 -2.370882
v 2.871820 3.345327 -2.370881
v 1.800803 1.829285 -2.676956
v 3.204846 -3.342056 -0.909479
v 4.251888 -2.514237 -1.035341
v 5.264034 -1.224401 -1.161200
v 5.840606 0.141379 -1.161200
v 6.390236 1.838730 -1.161200
v 6.679587 3.734723 -1.161200
v 4.785446 3.832188 -1.952942
v 3.718460 5.451899 -1.952942
v 4.670532 0.240469 -1.952943
v 5.123121 2.266950 -1.952943
v 4.133690 -1.231676 -1.952943
v 2.815801 -2.846252 -1.534913
v 3.349223 6.953680 -1.161199
v 1.307177 0.676304 -2.740267
v 0.364570 -0.628408 -2.668284
v 0.639169 0.211532 -2.740267
v 0.723552 0.515958 -2.740267
v 0.937679 1.559756 -2.658202
v 0.000000 4.116779 -2.040303
v 0.000000 5.084513 -1.161199
v 0.000000 -1.070744 -2.613993
v 0.000000 0.468217 -2.676956
v 0.000000 1.018389 -2.676956
v 0.000000 -0.134750 -2.676957
v -5.524479 6.343660 -1.161199
v -6.129176 5.099019 -1.161199
v -1.990325 -4.147901 -0.859659
v -1.684976 6.377549 -1.161199
v -1.299590 3.973132 -2.370881
v -1.082006 2.391986 -2.566905
v -1.693286 -2.984985 -1.902689
v -2.682069 -1.277200 -2.370882
v -2.129817 -0.017394 -2.676957
v -1.411438 -0.939965 -2.676957
v -3.482744 1.987630 -2.370881
v -3.302510 0.395131 -2.370882
v -2.871820 3.345327 -2.370881
v -1.800803 1.829285 -2.676956
v -3.204846 -3.342056 -0.909479
v -4.251888 -2.514237 -1.035341
v -5.264034 -1.224401 -1.161200
v -6.390236 1.838730 -1.161200
v -5.840606 0.141379 -1.161200
v -6.679587 3.734723 -1.161200
v -4.785446 3.832188 -1.952942
v -3.718460 5.451899 -1.952942
v -5.123121 2.266950 -1.952943
v -4.670532 0.240469 -1.952943
v -4.133690 -1.231676 -1.952943
v -2.815801 -2.846252 -1.534913
v -3.349223 6.953680 -1.161199
v -1.307177 0.676304 -2.740267
v -0.639169 0.211532 -2.740267
v -0.364570 -0.628408 -2.668284
v -0.937679 1.559756 -2.658202
v -0.723552 0.515958 -2.740267
vn 0.8499 0.4134 0.3268
vn 0.8510 0.4084 0.3301
vn 0.8502 0.4130 0.3265
vn 0.4983 -0.7559 0.4246
vn -0.6307 0.6193 0.4676
vn 0.0230 0.1199 0.9925
vn 0.0912 -0.6521 0.7526
vn 0.0915 -0.6524 0.7523
vn 0.0985 -0.6546 0.7495
vn 0.0935 -0.2875 0.9532
vn 0.1935 -0.1507 0.9695
vn 0.2622 -0.0297 0.9646
vn 0.0031 0.1958 0.9806
vn 0.6327 -0.6885 0.3545
vn 0.7414 -0.6370 0.2112
vn 0.9012 -0.3804 0.2078
vn 0.9313 -0.3016 0.2043
vn 0.9313 -0.3016 0.2044
vn 0.8816 0.3550 0.3111
vn 0.8816 0.3547 0.3113
vn 0.8816 0.3557 0.3104
vn 0.3878 0.1564 0.9084
vn 0.1825 0.1202 0.9758
vn 0.5490 -0.1226 0.8267
vn 0.2886 -0.0327 0.9569
vn 0.5624 -0.2051 0.8010
vn 0.2790 -0.1027 0.9548
vn 0.2814 -0.1038 0.9540
vn 0.2860 -0.1062 0.9523
vn 0.3811 -0.3813 0.8422
vn 0.3263 -0.4775 0.8158
vn 0.3703 -0.6019 0.7075
vn 0.0910 -0.6519 0.7528
vn 0.3291 0.1599 0.9307
vn -0.1311 0.4622 0.8770
vn 0.2403 0.8568 0.4563
vn -0.2830 0.8171 0.5022
vn -0.2831 0.8171 0.5021
vn -0.2828 0.8170 0.5024
vn 0.2981 -0.8094 0.5060
vn 0.2383 0.0514 0.9698
vn 0.5093 -0.0777 0.8571
vn 0.9645 -0.1472 0.2193
vn 0.1811 -0.0236 0.9832
vn -0.0307 -0.0754 0.9967
vn -0.0228 0.0830 0.9963
vn -0.0225 0.0828 0.9963
vn -0.0221 0.0827 0.9963
vn 0.0347 -0.0499 0.9981
vn -0.0587 0.1189 0.9912
vn -0.0599 -0.1740 0.9829
vn -0.4585 0.5975 0.6578
vn 0.1166 -0.2151 0.9696
vn -0.0872 0.0000 0.9962
vn -0.0986 -0.0000 0.9951
vn -0.0234 0.0750 0.9969
vn -0.0638 -0.0642 0.9959
vn -0.0669 -0.0670 0.9955
vn -0.0670 -0.0670 0.9955
vn 0.8509 0.4087 0.3301
vn 0.4918 -0.7667 0.4127
vn -0.5815 0.7578 0.2961
vn -0.1946 0.3492 0.9166
vn 0.1200 -0.3265 0.9376
vn 0.1210 -0.3774 0.9181
vn 0.2859 -0.1061 0.9524
vn 0.1297 0.0635 0.9895
vn 0.0466 0.1166 0.9921
vn 0.5830 -0.7746 0.2451
vn 0.7509 -0.6132 0.2451
vn 0.8816 0.3541 0.3120
vn 0.3333 0.2195 0.9169
vn 0.0671 0.1681 0.9835
vn 0.4846 -0.1569 0.8605
vn 0.2556 -0.0571 0.9651
vn 0.5329 -0.2250 0.8157
vn 0.2801 -0.1021 0.9545
vn 0.4764 -0.5636 0.6749
vn 0.2656 -0.3949 0.8795
vn 0.3834 -0.5927 0.7083
vn 0.3166 -0.5872 0.7449
vn 0.1369 0.4881 0.8620
vn -0.1496 0.4321 0.8893
vn 0.2544 0.8363 0.4857
vn -0.2833 0.8172 0.5019
vn 0.1916 0.0862 0.9777
vn 0.3880 0.0837 0.9179
vn 0.1715 0.0772 0.9822
vn 0.0379 -0.0295 0.9988
vn -0.0447 0.0738 0.9963
vn -0.0000 0.0000 1.0000
vn -0.1697 0.4645 0.8692
vn -0.0287 0.0842 0.9960
vn -0.0888 0.0246 0.9958
vn 0.0178 0.1060 0.9942
vn -0.0637 -0.0645 0.9959
vn -0.8499 0.4134 0.3268
vn -0.8502 0.4130 0.3265
vn -0.8510 0.4084 0.3301
vn -0.4983 -0.7559 0.4246
vn 0.6307 0.6193 0.4676
vn -0.0230 0.1199 0.9925
vn -0.0912 -0.6521 0.7526
vn -0.0985 -0.6546 0.7495
vn -0.0915 -0.6524 0.7523
vn -0.0935 -0.2875 0.9532
vn -0.1935 -0.1507 0.9695
vn -0.2622 -0.0297 0.9646
vn -0.0031 0.1958 0.9806
vn -0.6327 -0.6885 0.3545
vn -0.7414 -0.6370 0.2112
vn -0.9012 -0.3804 0.2078
vn -0.9313 -0.3016 0.2043
vn -0.9313 -0.3016 0.2044
vn -0.8816 0.3550 0.3111
vn -0.8816 0.3557 0.3104
vn -0.8816 0.3547 0.3113
vn -0.3878 0.1564 0.9084
vn -0.1825 0.1202 0.9758
vn -0.5490 -0.1226 0.8267
vn -0.2886 -0.0327 0.9569
vn -0.5624 -0.2051 0.8010
vn -0.2790 -0.1027 0.9548
vn -0.2860 -0.1062 0.9523
vn -0.2814 -0.1038 0.9540
vn -0.3811 -0.3813 0.8422
vn -0.3263 -0.4775 0.8158
vn -0.3703 -0.6019 0.7075
vn -0.0910 -0.6519 0.7528
vn -0.3291 0.1599 0.9307
vn 0.1311 0.4622 0.8770
vn -0.2403 0.8568 0.4563
vn 0.2830 0.8171 0.5022
vn 0.2828 0.8170 0.5024
vn 0.2831 0.8171 0.5021
vn -0.2981 -0.8094 0.5060
vn -0.2383 0.0514 0.9698
vn -0.5093 -0.0777 0.8571
vn -0.9645 -0.1472 0.2193
vn -0.1811 -0.0236 0.9832
vn 0.0307 -0.0754 0.9967
vn 0.0228 0.0830 0.9963
vn 0.0221 0.0827 0.9963
vn 0.0225 0.0828 0.9963
vn -0.0347 -0.0499 0.9981
vn 0.0587 0.1189 0.9912
vn 0.0599 -0.1740 0.9829
vn 0.4585 0.5975 0.6578
vn -0.1166 -0.2151 0.9696
vn 0.0872 0.0000 0.9962
vn 0.0986 -0.0000 0.9951
vn 0.0234 0.0750 0.9969
vn 0.0638 -0.0642 0.9959
vn 0.0670 -0.0670 0.9955
vn 0.0669 -0.0670 0.9955
vn -0.8509 0.4087 0.3301
vn -0.4918 -0.7667 0.4127
vn 0.5815 0.7578 0.2961
vn 0.1946 0.3492 0.9166
vn -0.1200 -0.3265 0.9376
vn -0.1210 -0.3774 0.9181
vn -0.2859 -0.1061 0.9524
vn -0.1297 0.0635 0.9895
vn -0.0466 0.1166 0.9921
vn -0.5830 -0.7746 0.2451
vn -0.7509 -0.6132 0.2451
vn -0.8816 0.3541 0.3120
vn -0.3333 0.2195 0.9169
vn -0.0671 0.1681 0.9835
vn -0.4846 -0.1569 0.8605
vn -0.2556 -0.0571 0.9651
vn -0.5329 -0.2250 0.8157
vn -0.2801 -0.1021 0.9545
vn -0.4764 -0.5636 0.6749
vn -0.2656 -0.3949 0.8795
vn -0.3834 -0.5927 0.7083
vn -0.3166 -0.5872 0.7449
vn -0.1369 0.4881 0.8620
vn 0.1496 0.4321 0.8893
vn -0.2544 0.8363 0.4857
vn 0.2833 0.8172 0.5019
vn -0.1916 0.0862 0.9777
vn -0.3880 0.0837 0.9179
vn -0.1715 0.0772 0.9822
vn -0.0379 -0.0295 0.9988
vn 0.0447 0.0738 0.9963
vn 0.1697 0.4645 0.8692
vn 0.0287 0.0842 0.9960
vn 0.0888 0.0246 0.9958
vn -0.0178 0.1060 0.9942
vn 0.0637 -0.0645 0.9959
vn 0.8499 0.4134 -0.3268
vn 0.8502 0.4130 -0.3265
vn 0.8510 0.4084 -0.3301
vn 0.4983 -0.7559 -0.4246
vn -0.6307 0.6193 -0.4676
vn 0.0230 0.1199 -0.9925
vn 0.0912 -0.6521 -0.7526
vn 0.0985 -0.6546 -0.7495
vn 0.0915 -0.6524 -0.7523
vn 0.0935 -0.2875 -0.9532
vn 0.1935 -0.1507 -0.9695
vn 0.2622 -0.0297 -0.9646
vn 0.0031 0.1958 -0.9806
vn 0.6327 -0.6885 -0.3545
vn 0.7414 -0.6370 -0.2111
vn 0.9012 -0.3804 -0.2078
vn 0.9313 -0.3016 -0.2043
vn 0.9313 -0.3016 -0.2044
vn 0.8816 0.3550 -0.3111
vn 0.8816 0.3557 -0.3104
vn 0.8816 0.3547 -0.3113
vn 0.3878 0.1564 -0.9084
vn 0.1825 0.1202 -0.9758
vn 0.5490 -0.1226 -0.8267
vn 0.2886 -0.0327 -0.9569
vn 0.5624 -0.2051 -0.8010
vn 0.2790 -0.1027 -0.9548
vn 0.2860 -0.1062 -0.9523
vn 0.2814 -0.1038 -0.9540
vn 0.3811 -0.3813 -0.8422
vn 0.3263 -0.4775 -0.8158
vn 0.3703 -0.6019 -0.7075
vn 0.0910 -0.6519 -0.7528
vn 0.3291 0.1599 -0.9307
vn -0.1311 0.4622 -0.8770
vn 0.2403 0.8568 -0.4563
vn -0.2830 0.8171 -0.5022
vn -0.2828 0.8170 -0.5024
vn -0.2831 0.8171 -0.5021
vn 0.2981 -0.8094 -0.5060
vn 0.2383 0.0514 -0.9698
vn 0.5093 -0.0777 -0.8571
vn 0.9645 -0.1472 -0.2193
vn 0.1811 -0.0236 -0.9832
vn -0.0307 -0.0754 -0.9967
vn -0.0228 0.0830 -0.9963
vn -0.0221 0.0827 -0.9963
vn -0.0225 0.0828 -0.9963
vn 0.0347 -0.0499 -0.9981
vn -0.0587 0.1189 -0.9912
vn -0.0599 -0.1740 -0.9829
vn -0.4585 0.5975 -0.6578
vn 0.1166 -0.2151 -0.9696
vn -0.0872 0.0000 -0.9962
vn -0.0986 0.0000 -0.9951
vn -0.0234 0.0750 -0.9969
vn -0.0638 -0.0642 -0.9959
vn -0.0670 -0.0670 -0.9955
vn -0.0669 -0.0670 -0.9955
vn 0.8509 0.4087 -0.3301
vn 0.4918 -0.7667 -0.4127
vn -0.5815 0.7578 -0.2961
vn -0.1946 0.3492 -0.9166
vn 0.1200 -0.3265 -0.9376
vn 0.1210 -0.3774 -0.9181
vn 0.2859 -0.1061 -0.9524
vn 0.1297 0.0635 -0.9895
vn 0.0466 0.1166 -0.9921
vn 0.5830 -0.7746 -0.2451
vn 0.7509 -0.6132 -0.2451
vn 0.8816 0.3541 -0.3120
vn 0.3333 0.2195 -0.9169
vn 0.0671 0.1681 -0.9835
vn 0.4846 -0.1569 -0.8605
vn 0.2556 -0.0571 -0.9651
vn 0.5329 -0.2250 -0.8157
vn 0.2801 -0.1021 -0.9545
vn 0.4764 -0.5636 -0.6749
vn 0.2656 -0.3949 -0.8795
vn 0.3834 -0.5927 -0.7083
vn 0.3166 -0.5872 -0.7449
vn 0.1369 0.4881 -0.8620
vn -0.1496 0.4321 -0.8893
vn 0.2544 0.8363 -0.4857
vn -0.2833 0.8172 -0.5019
vn 0.1916 0.0862 -0.9777
vn 0.3880 0.0837 -0.9179
vn 0.1715 0.0772 -0.9822
vn 0.0379 -0.0295 -0.9988
vn -0.0447 0.0738 -0.9963
vn 0.0000 0.0000 -1.0000
vn -0.1697 0.4645 -0.8692
vn -0.0287 0.0842 -0.9960
vn -0.0888 0.0246 -0.9958
vn 0.0178 0.1060 -0.9942
vn -0.0637 -0.0645 -0.9959
vn -0.8499 0.4134 -0.3268
vn -0.8510 0.4084 -0.3301
vn -0.8502 0.4130 -0.3265
vn -0.4983 -0.7559 -0.4246
vn 0.6307 0.6193 -0.4676
vn -0.0230 0.1199 -0.9925
vn -0.0912 -0.6521 -0.7526
vn -0.0915 -0.6524 -0.7523
vn -0.0985 -0.6546 -0.7495
vn -0.0935 -0.2875 -0.9532
vn -0.1935 -0.1507 -0.9695
vn -0.2622 -0.0297 -0.9646
vn -0.0031 0.1958 -0.9806
vn -0.6327 -0.6885 -0.3545
vn -0.7414 -0.6370 -0.2111
vn -0.9012 -0.3804 -0.2078
vn -0.9313 -0.3016 -0.2043
vn -0.9313 -0.3016 -0.2044
vn -0.8816 0.3550 -0.3111
vn -0.8816 0.3547 -0.3113
vn -0.8816 0.3557 -0.3104
vn -0.3878 0.1564 -0.9084
vn -0.1825 0.1202 -0.9758
vn -0.5490 -0.1226 -0.8267
vn -0.2886 -0.0327 -0.9569
vn -0.5624 -0.2051 -0.8010
vn -0.2790 -0.1027 -0.9548
vn -0.2814 -0.1038 -0.9540
vn -0.2860 -0.1062 -0.9523
vn -0.3811 -0.3813 -0.8422
vn -0.3263 -0.4775 -0.8158
vn -0.3703 -0.6019 -0.7075
vn -0.0910 -0.6519 -0.7528
vn -0.3291 0.1599 -0.9307
vn 0.1311 0.4622 -0.8770
vn -0.2403 0.8568 -0.4563
vn 0.2830 0.8171 -0.5022
vn 0.2831 0.8171 -0.5021
vn 0.2828 0.8170 -0.5024
vn -0.2981 -0.8094 -0.5060
vn -0.2383 0.0514 -0.9698
vn -0.5093 -0.0777 -0.8571
vn -0.9645 -0.1472 -0.2193
vn -0.1811 -0.0236 -0.9832
vn 0.0307 -0.0754 -0.9967
vn 0.0228 0.0830 -0.9963
vn 0.0225 0.0828 -0.9963
vn 0.0221 0.0827 -0.9963
vn -0.0347 -0.0499 -0.9981
vn 0.0587 0.1189 -0.9912
vn 0.0599 -0.1740 -0.9829
vn 0.4585 0.5975 -0.6578
vn -0.1166 -0.2151 -0.9696
vn 0.0872 0.0000 -0.9962
vn 0.0986 0.0000 -0.9951
vn 0.0234 0.0750 -0.9969
vn 0.0638 -0.0642 -0.9959
vn 0.0669 -0.0670 -0.9955
vn 0.0670 -0.0670 -0.9955
vn -0.8509 0.4087 -0.3301
vn -0.4918 -0.7667 -0.4127
vn 0.5815 0.7578 -0.2961
vn 0.1946 0.3492 -0.9166
vn -0.1200 -0.3265 -0.9376
vn -0.1210 -0.3774 -0.9181
vn -0.2859 -0.1061 -0.9524
vn -0.1297 0.0635 -0.9895
vn -0.0466 0.1166 -0.9921
vn -0.5830 -0.7746 -0.2451
vn -0.7509 -0.6132 -0.2451
vn -0.8816 0.3541 -0.3120
vn -0.3333 0.2195 -0.9169
vn -0.0671 0.1681 -0.9835
vn -0.4846 -0.1569 -0.8605
vn -0.2556 -0.0571 -0.9651
vn -0.5329 -0.2250 -0.8157
vn -0.2801 -0.1021 -0.9545
vn -0.4764 -0.5636 -0.6749
vn -0.2656 -0.3949 -0.8795
vn -0.3834 -0.5927 -0.7083
vn -0.3166 -0.5872 -0.7449
vn -0.1369 0.4881 -0.8620
vn 0.1496 0.4321 -0.8893
vn -0.2544 0.8363 -0.4857
vn 0.2833 0.8172 -0.5019
vn -0.1916 0.0862 -0.9777
vn -0.3880 0.0837 -0.9179
vn -0.1715 0.0772 -0.9822
vn -0.0379 -0.0295 -0.9988
vn 0.0447 0.0738 -0.9963
vn 0.1697 0.4645 -0.8692
vn 0.0287 0.0842 -0.9960
vn 0.0888 0.0246 -0.9958
vn -0.0178 0.1060 -0.9942
vn 0.0637 -0.0645 -0.9959
s 1
f 1//1 2//2 3//3
f 4//4 5//4 6//4
f 7//5 8//5 9//5
f 10//6 11//6 12//6
f 13//7 14//8 15//9
f 16//10 17//10 15//10
f 16//11 18//11 19//11
f 20//12 18//12 21//12
f 22//13 12//13 23//13
f 24//14 25//14 4//14
f 26//15 27//15 24//15
f 28//16 29//16 26//16
f 28//17 30//18 31//17
f 32//19 3//20 33//21
f 3//22 34//22 33//22
f 35//23 22//23 34//23
f 31//24 36//24 37//24
f 37//25 20//25 21//25
f 29//26 37//26 38//26
f 38//27 21//28 16//29
f 29//30 39//30 27//30
f 38//31 14//31 39//31
f 25//32 39//32 5//32
f 5//33 14//8 13//7
f 2//34 35//34 3//34
f 35//35 8//35 10//35
f 40//36 41//36 2//36
f 42//37 8//38 41//39
f 13//40 6//40 5//40
f 34//41 20//41 36//41
f 33//42 36//42 30//42
f 43//43 33//43 30//43
f 20//44 23//44 44//44
f 19//45 45//45 46//45
f 44//46 47//47 48//48
f 44//49 45//49 18//49
f 23//50 12//50 47//50
f 17//51 19//51 46//51
f 49//52 8//52 50//52
f 46//53 51//53 17//53
f 48//54 52//54 53//54
f 45//55 53//55 54//55
f 47//56 11//56 52//56
f 46//57 54//58 51//59
f 1//1 40//60 2//2
f 4//61 25//61 5//61
f 7//62 50//62 8//62
f 10//63 49//63 11//63
f 15//64 14//64 16//64
f 16//65 19//65 17//65
f 16//29 21//28 18//66
f 20//67 44//67 18//67
f 22//68 10//68 12//68
f 24//69 27//69 25//69
f 26//70 29//70 27//70
f 28//16 31//16 29//16
f 28//17 43//18 30//18
f 32//19 1//71 3//20
f 3//72 35//72 34//72
f 35//73 10//73 22//73
f 31//74 30//74 36//74
f 37//75 36//75 20//75
f 29//76 31//76 37//76
f 38//27 37//77 21//28
f 29//78 38//78 39//78
f 38//79 16//79 14//79
f 25//80 27//80 39//80
f 5//81 39//81 14//81
f 2//82 41//82 35//82
f 35//83 41//83 8//83
f 40//84 42//84 41//84
f 42//37 9//85 8//38
f 34//86 22//86 20//86
f 33//87 34//87 36//87
f 43//43 32//43 33//43
f 20//88 22//88 23//88
f 19//89 18//89 45//89
f 44//90 23//90 47//90
f 44//91 48//91 45//91
f 49//92 10//92 8//92
f 48//48 47//47 52//93
f 45//94 48//94 53//94
f 47//95 12//95 11//95
f 46//57 45//96 54//58
f 55//97 56//98 57//99
f 58//100 59//100 60//100
f 7//101 61//101 62//101
f 63//102 64//102 11//102
f 13//103 15//104 65//105
f 66//106 15//106 17//106
f 66//107 67//107 68//107
f 69//108 70//108 68//108
f 71//109 72//109 64//109
f 73//110 58//110 74//110
f 75//111 73//111 76//111
f 77//112 75//112 78//112
f 77//113 79//113 80//114
f 81//115 82//116 56//117
f 56//118 82//118 83//118
f 84//119 83//119 71//119
f 79//120 85//120 86//120
f 85//121 70//121 69//121
f 78//122 87//122 85//122
f 87//123 66//124 70//125
f 78//126 76//126 88//126
f 87//127 88//127 65//127
f 74//128 60//128 88//128
f 60//129 13//103 65//105
f 57//130 56//130 84//130
f 84//131 63//131 62//131
f 89//132 57//132 90//132
f 91//133 90//134 62//135
f 13//136 60//136 59//136
f 83//137 86//137 69//137
f 82//138 80//138 86//138
f 92//139 80//139 82//139
f 69//140 93//140 72//140
f 67//141 94//141 95//141
f 93//142 96//143 97//144
f 93//145 68//145 95//145
f 72//146 97//146 64//146
f 17//147 94//147 67//147
f 49//148 50//148 62//148
f 94//149 17//149 51//149
f 96//150 53//150 52//150
f 95//151 54//151 53//151
f 97//152 52//152 11//152
f 94//153 51//154 54//155
f 55//97 57//99 89//156
f 58//157 60//157 74//157
f 7//158 62//158 50//158
f 63//159 11//159 49//159
f 15//160 66//160 65//160
f 66//161 17//161 67//161
f 66//124 68//162 70//125
f 69//163 68//163 93//163
f 71//164 64//164 63//164
f 73//165 74//165 76//165
f 75//166 76//166 78//166
f 77//112 78//112 79//112
f 77//113 80//114 92//114
f 81//115 56//117 55//167
f 56//168 83//168 84//168
f 84//169 71//169 63//169
f 79//170 86//170 80//170
f 85//171 69//171 86//171
f 78//172 85//172 79//172
f 87//123 70//125 85//173
f 78//174 88//174 87//174
f 87//175 65//175 66//175
f 74//176 88//176 76//176
f 60//177 65//177 88//177
f 57//178 84//178 90//178
f 84//179 62//179 90//179
f 89//180 90//180 91//180
f 91//133 62//135 61//181
f 83//182 69//182 71//182
f 82//183 86//183 83//183
f 92//139 82//139 81//139
f 69//184 72//184 71//184
f 67//185 95//185 68//185
f 93//186 97//186 72//186
f 93//91 95//91 96//91
f 49//187 62//187 63//187
f 96//143 52//188 97//144
f 95//189 53//189 96//189
f 97//190 11//190 64//190
f 94//153 54//155 95//191
f 1//192 98//193 99//194
f 4//195 6//195 100//195
f 7//196 9//196 101//196
f 102//197 103//197 104//197
f 13//198 105//199 106//200
f 107//201 105//201 108//201
f 107//202 109//202 110//202
f 111//203 112//203 110//203
f 113//204 114//204 103//204
f 24//205 4//205 115//205
f 26//206 24//206 116//206
f 28//207 26//207 117//207
f 28//208 118//208 119//209
f 32//210 120//211 98//212
f 98//213 120//213 121//213
f 122//214 121//214 113//214
f 118//215 123//215 124//215
f 123//216 112//216 111//216
f 117//217 125//217 123//217
f 125//218 107//219 112//220
f 117//221 116//221 126//221
f 125//222 126//222 106//222
f 115//223 100//223 126//223
f 100//224 13//198 106//200
f 99//225 98//225 122//225
f 122//226 102//226 101//226
f 40//227 99//227 127//227
f 42//228 127//229 101//230
f 13//231 100//231 6//231
f 121//232 124//232 111//232
f 120//233 119//233 124//233
f 43//234 119//234 120//234
f 111//235 128//235 114//235
f 109//236 129//236 130//236
f 128//237 131//238 132//239
f 128//240 110//240 130//240
f 114//241 132//241 103//241
f 108//242 129//242 109//242
f 133//243 134//243 101//243
f 129//244 108//244 135//244
f 131//245 136//245 137//245
f 130//246 138//246 136//246
f 132//247 137//247 104//247
f 129//248 135//249 138//250
f 1//192 99//194 40//251
f 4//252 100//252 115//252
f 7//253 101//253 134//253
f 102//254 104//254 133//254
f 105//255 107//255 106//255
f 107//256 108//256 109//256
f 107//219 110//257 112//220
f 111//258 110//258 128//258
f 113//259 103//259 102//259
f 24//260 115//260 116//260
f 26//261 116//261 117//261
f 28//207 117//207 118//207
f 28//208 119//209 43//209
f 32//210 98//212 1//262
f 98//263 121//263 122//263
f 122//264 113//264 102//264
f 118//265 124//265 119//265
f 123//266 111//266 124//266
f 117//267 123//267 118//267
f 125//218 112//220 123//268
f 117//269 126//269 125//269
f 125//270 106//270 107//270
f 115//271 126//271 116//271
f 100//272 106//272 126//272
f 99//273 122//273 127//273
f 122//274 101//274 127//274
f 40//275 127//275 42//275
f 42//228 101//230 9//276
f 121//277 111//277 113//277
f 120//278 124//278 121//278
f 43//234 120//234 32//234
f 111//279 114//279 113//279
f 109//280 130//280 110//280
f 128//281 132//281 114//281
f 128//282 130//282 131//282
f 133//283 101//283 102//283
f 131//238 137//284 132//239
f 130//285 136//285 131//285
f 132//286 104//286 103//286
f 129//248 138//250 130//287
f 55//288 139//289 140//290
f 58//291 141//291 59//291
f 7//292 142//292 61//292
f 143//293 104//293 144//293
f 13//294 145//295 105//296
f 146//297 108//297 105//297
f 146//298 147//298 148//298
f 149//299 147//299 150//299
f 151//300 144//300 152//300
f 73//301 153//301 58//301
f 75//302 154//302 73//302
f 77//303 155//303 75//303
f 77//304 156//305 157//304
f 81//306 140//307 158//308
f 140//309 159//309 158//309
f 160//310 151//310 159//310
f 157//311 161//311 162//311
f 162//312 149//312 150//312
f 155//313 162//313 163//313
f 163//314 150//315 146//316
f 155//317 164//317 154//317
f 163//318 145//318 164//318
f 153//319 164//319 141//319
f 141//320 145//295 13//294
f 139//321 160//321 140//321
f 160//322 142//322 143//322
f 89//323 165//323 139//323
f 91//324 142//325 165//326
f 13//327 59//327 141//327
f 159//328 149//328 161//328
f 158//329 161//329 156//329
f 92//330 158//330 156//330
f 149//331 152//331 166//331
f 148//332 167//332 168//332
f 166//333 169//334 170//335
f 166//336 167//336 147//336
f 152//337 144//337 169//337
f 108//338 148//338 168//338
f 133//339 142//339 134//339
f 168//340 135//340 108//340
f 170//341 137//341 136//341
f 167//342 136//342 138//342
f 169//343 104//343 137//343
f 168//344 138//345 135//346
f 55//288 89//347 139//289
f 58//348 153//348 141//348
f 7//349 134//349 142//349
f 143//350 133//350 104//350
f 105//351 145//351 146//351
f 146//352 148//352 108//352
f 146//316 150//315 147//353
f 149//354 166//354 147//354
f 151//355 143//355 144//355
f 73//356 154//356 153//356
f 75//357 155//357 154//357
f 77//303 157//303 155//303
f 77//304 92//305 156//305
f 81//306 55//358 140//307
f 140//359 160//359 159//359
f 160//360 143//360 151//360
f 157//361 156//361 161//361
f 162//362 161//362 149//362
f 155//363 157//363 162//363
f 163//314 162//364 150//315
f 155//365 163//365 164//365
f 163//366 146//366 145//366
f 153//367 154//367 164//367
f 141//368 164//368 145//368
f 139//369 165//369 160//369
f 160//370 165//370 142//370
f 89//371 91//371 165//371
f 91//324 61//372 142//325
f 159//373 151//373 149//373
f 158//374 159//374 161//374
f 92//330 81//330 158//330
f 149//375 151//375 152//375
f 148//376 147//376 167//376
f 166//377 152//377 169//377
f 166//282 170//282 167//282
f 133//378 143//378 142//378
f 170//335 169//334 137//379
f 167//380 170//380 136//380
f 169//381 144//381 104//381
f 168//344 167//382 138//345
